<mxfile host="drawio-plugin" agent="Mozilla/5.0 (Macintosh; Intel Mac OS X 10_15_7) AppleWebKit/537.36 (KHTML, like Gecko) Chrome/122.0.0.0 Safari/537.36" modified="2025-01-15T21:00:52.237Z" version="22.1.22" etag="zk-_WlO6kKTecBw3G9f6" type="embed">
  <diagram name="Seite-1" id="MKljbgSeJdDD-drwOJYf">
    <mxGraphModel dx="2389" dy="1754" grid="1" gridSize="10" guides="1" tooltips="1" connect="1" arrows="1" fold="1" page="1" pageScale="1" pageWidth="827" pageHeight="1169" math="0" shadow="0">
      <root>
        <mxCell id="0" />
        <mxCell id="1" parent="0" />
        <mxCell id="fHIm1r6-pVbR7uOzrHsc-70" style="edgeStyle=orthogonalEdgeStyle;shape=connector;rounded=0;orthogonalLoop=1;jettySize=auto;html=1;entryX=0.5;entryY=1;entryDx=0;entryDy=0;strokeColor=default;align=center;verticalAlign=middle;fontFamily=Helvetica;fontSize=11;fontColor=default;labelBackgroundColor=default;endArrow=block;endFill=1;" parent="1" source="fHIm1r6-pVbR7uOzrHsc-29" target="fHIm1r6-pVbR7uOzrHsc-34" edge="1">
          <mxGeometry relative="1" as="geometry" />
        </mxCell>
        <mxCell id="fHIm1r6-pVbR7uOzrHsc-29" value="" style="shape=hexagon;perimeter=hexagonPerimeter2;whiteSpace=wrap;html=1;fixedSize=1;size=350;fillColor=#CEEAFF;" parent="1" vertex="1">
          <mxGeometry x="-1290" y="-390" width="1400" height="1170" as="geometry" />
        </mxCell>
        <mxCell id="fHIm1r6-pVbR7uOzrHsc-30" value="" style="shape=hexagon;perimeter=hexagonPerimeter2;whiteSpace=wrap;html=1;fixedSize=1;size=210;fillColor=#9BD5FF;" parent="1" vertex="1">
          <mxGeometry x="-1035" y="-195.45999999999998" width="890" height="748.91" as="geometry" />
        </mxCell>
        <mxCell id="fHIm1r6-pVbR7uOzrHsc-31" value="" style="shape=hexagon;perimeter=hexagonPerimeter2;whiteSpace=wrap;html=1;fixedSize=1;size=77.73999999999978;fillColor=#68C0FF;" parent="1" vertex="1">
          <mxGeometry x="-767.74" y="34" width="355.48" height="290" as="geometry" />
        </mxCell>
        <mxCell id="fHIm1r6-pVbR7uOzrHsc-37" style="edgeStyle=orthogonalEdgeStyle;rounded=0;orthogonalLoop=1;jettySize=auto;html=1;entryX=0.079;entryY=1.011;entryDx=0;entryDy=0;endArrow=block;endFill=1;entryPerimeter=0;" parent="1" source="fHIm1r6-pVbR7uOzrHsc-38" target="fHIm1r6-pVbR7uOzrHsc-40" edge="1">
          <mxGeometry relative="1" as="geometry" />
        </mxCell>
        <mxCell id="fHIm1r6-pVbR7uOzrHsc-39" style="edgeStyle=orthogonalEdgeStyle;rounded=0;orthogonalLoop=1;jettySize=auto;html=1;dashed=1;endArrow=block;endFill=0;entryX=0.25;entryY=1;entryDx=0;entryDy=0;" parent="1" source="fHIm1r6-pVbR7uOzrHsc-38" target="fHIm1r6-pVbR7uOzrHsc-36" edge="1">
          <mxGeometry relative="1" as="geometry">
            <mxPoint x="-650" y="280" as="targetPoint" />
            <Array as="points">
              <mxPoint x="-730" y="360" />
              <mxPoint x="-630" y="360" />
            </Array>
          </mxGeometry>
        </mxCell>
        <mxCell id="fHIm1r6-pVbR7uOzrHsc-40" value="&lt;div&gt;&lt;font color=&quot;#808080&quot;&gt;&amp;lt;&amp;lt; interface &amp;gt;&amp;gt;&lt;/font&gt;&lt;/div&gt;&lt;div&gt;&lt;font&gt;ReviewEvents&lt;br&gt;&lt;/font&gt;&lt;/div&gt;" style="rounded=0;whiteSpace=wrap;html=1;fontSize=14;" parent="1" vertex="1">
          <mxGeometry x="-410" y="20" width="160" height="60" as="geometry" />
        </mxCell>
        <mxCell id="fHIm1r6-pVbR7uOzrHsc-41" value="&lt;div&gt;&lt;font color=&quot;#808080&quot;&gt;&amp;lt;&amp;lt; interface &amp;gt;&amp;gt;&lt;/font&gt;&lt;/div&gt;&lt;div&gt;&lt;font&gt;ReviewRepository&lt;br&gt;&lt;/font&gt;&lt;/div&gt;" style="rounded=0;whiteSpace=wrap;html=1;fontSize=14;" parent="1" vertex="1">
          <mxGeometry x="-360" y="180" width="160" height="60" as="geometry" />
        </mxCell>
        <mxCell id="fHIm1r6-pVbR7uOzrHsc-42" style="edgeStyle=orthogonalEdgeStyle;rounded=0;orthogonalLoop=1;jettySize=auto;html=1;endArrow=block;endFill=1;exitX=1;exitY=0.75;exitDx=0;exitDy=0;entryX=0.25;entryY=1;entryDx=0;entryDy=0;" parent="1" source="fHIm1r6-pVbR7uOzrHsc-38" target="fHIm1r6-pVbR7uOzrHsc-41" edge="1">
          <mxGeometry relative="1" as="geometry" />
        </mxCell>
        <mxCell id="fHIm1r6-pVbR7uOzrHsc-46" style="edgeStyle=orthogonalEdgeStyle;rounded=0;orthogonalLoop=1;jettySize=auto;html=1;endArrow=block;endFill=0;dashed=1;entryX=0.5;entryY=0;entryDx=0;entryDy=0;" parent="1" source="fHIm1r6-pVbR7uOzrHsc-45" target="fHIm1r6-pVbR7uOzrHsc-40" edge="1">
          <mxGeometry relative="1" as="geometry" />
        </mxCell>
        <mxCell id="fHIm1r6-pVbR7uOzrHsc-45" value="&lt;div&gt;&lt;font&gt;RabbitMQ&lt;/font&gt;&lt;/div&gt;&lt;div&gt;&lt;font&gt;ReviewEventsImpl&lt;/font&gt;&lt;/div&gt;" style="rounded=0;whiteSpace=wrap;html=1;fontSize=14;" parent="1" vertex="1">
          <mxGeometry x="-220" y="-70" width="160" height="60" as="geometry" />
        </mxCell>
        <mxCell id="fHIm1r6-pVbR7uOzrHsc-76" style="edgeStyle=orthogonalEdgeStyle;shape=connector;rounded=0;orthogonalLoop=1;jettySize=auto;html=1;entryX=0.25;entryY=1;entryDx=0;entryDy=0;strokeColor=default;align=center;verticalAlign=middle;fontFamily=Helvetica;fontSize=11;fontColor=default;labelBackgroundColor=default;endArrow=block;endFill=1;" parent="1" source="fHIm1r6-pVbR7uOzrHsc-49" target="fHIm1r6-pVbR7uOzrHsc-51" edge="1">
          <mxGeometry relative="1" as="geometry">
            <Array as="points">
              <mxPoint x="-130" y="315" />
              <mxPoint x="-80" y="315" />
            </Array>
          </mxGeometry>
        </mxCell>
        <mxCell id="fHIm1r6-pVbR7uOzrHsc-49" value="&lt;div&gt;&lt;font&gt;ReviewRepositoryImpl&lt;/font&gt;&lt;/div&gt;" style="rounded=0;whiteSpace=wrap;html=1;fontSize=14;" parent="1" vertex="1">
          <mxGeometry x="-240" y="390" width="160" height="60" as="geometry" />
        </mxCell>
        <mxCell id="fHIm1r6-pVbR7uOzrHsc-50" style="edgeStyle=orthogonalEdgeStyle;shape=connector;rounded=0;orthogonalLoop=1;jettySize=auto;html=1;entryX=0.685;entryY=0.983;entryDx=0;entryDy=0;entryPerimeter=0;strokeColor=default;align=center;verticalAlign=middle;fontFamily=Helvetica;fontSize=11;fontColor=default;labelBackgroundColor=default;endArrow=block;endFill=0;dashed=1;" parent="1" source="fHIm1r6-pVbR7uOzrHsc-49" target="fHIm1r6-pVbR7uOzrHsc-41" edge="1">
          <mxGeometry relative="1" as="geometry" />
        </mxCell>
        <mxCell id="fHIm1r6-pVbR7uOzrHsc-51" value="&lt;div&gt;&lt;font color=&quot;#808080&quot;&gt;&amp;lt;&amp;lt; interface &amp;gt;&amp;gt;&lt;/font&gt;&lt;br&gt;&lt;/div&gt;&lt;div&gt;JpaReviewRepository&lt;/div&gt;" style="rounded=0;whiteSpace=wrap;html=1;fontSize=14;" parent="1" vertex="1">
          <mxGeometry x="-120" y="180" width="160" height="60" as="geometry" />
        </mxCell>
        <mxCell id="fHIm1r6-pVbR7uOzrHsc-53" value="&lt;font style=&quot;font-size: 10px;&quot;&gt;ReviewEntity&lt;/font&gt;" style="rounded=0;whiteSpace=wrap;html=1;strokeColor=default;align=center;verticalAlign=middle;fontFamily=Helvetica;fontSize=12;fontColor=default;fillColor=default;" parent="1" vertex="1">
          <mxGeometry x="-30" y="247" width="70" height="20" as="geometry" />
        </mxCell>
        <mxCell id="fHIm1r6-pVbR7uOzrHsc-56" style="edgeStyle=orthogonalEdgeStyle;shape=connector;rounded=0;orthogonalLoop=1;jettySize=auto;html=1;entryX=0;entryY=0.25;entryDx=0;entryDy=0;strokeColor=default;align=center;verticalAlign=middle;fontFamily=Helvetica;fontSize=11;fontColor=default;labelBackgroundColor=default;endArrow=block;endFill=1;" parent="1" source="fHIm1r6-pVbR7uOzrHsc-55" target="fHIm1r6-pVbR7uOzrHsc-36" edge="1">
          <mxGeometry relative="1" as="geometry" />
        </mxCell>
        <mxCell id="fHIm1r6-pVbR7uOzrHsc-55" value="&lt;div&gt;&lt;font&gt;ReviewRestControllerV1&lt;/font&gt;&lt;/div&gt;" style="rounded=0;whiteSpace=wrap;html=1;fontSize=14;" parent="1" vertex="1">
          <mxGeometry x="-1150" y="-10" width="160" height="60" as="geometry" />
        </mxCell>
        <mxCell id="fHIm1r6-pVbR7uOzrHsc-58" value="&lt;font style=&quot;font-size: 10px;&quot;&gt;CreateReviewRequestDTO&lt;/font&gt;" style="rounded=0;whiteSpace=wrap;html=1;strokeColor=default;align=center;verticalAlign=middle;fontFamily=Helvetica;fontSize=12;fontColor=default;fillColor=default;" parent="1" vertex="1">
          <mxGeometry x="-1150" y="54" width="130" height="20" as="geometry" />
        </mxCell>
        <mxCell id="fHIm1r6-pVbR7uOzrHsc-59" value="&lt;div&gt;&lt;font style=&quot;font-size: 10px;&quot;&gt;ReviewResponseDTO&lt;/font&gt;&lt;/div&gt;" style="rounded=0;whiteSpace=wrap;html=1;strokeColor=default;align=center;verticalAlign=middle;fontFamily=Helvetica;fontSize=12;fontColor=default;fillColor=default;" parent="1" vertex="1">
          <mxGeometry x="-1150" y="78" width="110" height="20" as="geometry" />
        </mxCell>
        <mxCell id="fHIm1r6-pVbR7uOzrHsc-60" value="&lt;div&gt;&lt;font style=&quot;font-size: 10px;&quot;&gt;UpdateReviewRequestDTO&lt;/font&gt;&lt;/div&gt;" style="rounded=0;whiteSpace=wrap;html=1;strokeColor=default;align=center;verticalAlign=middle;fontFamily=Helvetica;fontSize=12;fontColor=default;fillColor=default;" parent="1" vertex="1">
          <mxGeometry x="-1150" y="102" width="130" height="20" as="geometry" />
        </mxCell>
        <mxCell id="fHIm1r6-pVbR7uOzrHsc-62" style="edgeStyle=orthogonalEdgeStyle;shape=connector;rounded=0;orthogonalLoop=1;jettySize=auto;html=1;strokeColor=default;align=center;verticalAlign=middle;fontFamily=Helvetica;fontSize=11;fontColor=default;labelBackgroundColor=default;endArrow=block;endFill=1;entryX=0;entryY=0.75;entryDx=0;entryDy=0;" parent="1" source="fHIm1r6-pVbR7uOzrHsc-61" target="fHIm1r6-pVbR7uOzrHsc-36" edge="1">
          <mxGeometry relative="1" as="geometry">
            <mxPoint x="-670" y="270" as="targetPoint" />
            <Array as="points">
              <mxPoint x="-870" y="415" />
              <mxPoint x="-870" y="245" />
            </Array>
          </mxGeometry>
        </mxCell>
        <mxCell id="fHIm1r6-pVbR7uOzrHsc-64" style="edgeStyle=orthogonalEdgeStyle;shape=connector;rounded=0;orthogonalLoop=1;jettySize=auto;html=1;strokeColor=default;align=center;verticalAlign=middle;fontFamily=Helvetica;fontSize=11;fontColor=default;labelBackgroundColor=default;endArrow=block;endFill=0;dashed=1;" parent="1" source="fHIm1r6-pVbR7uOzrHsc-61" target="fHIm1r6-pVbR7uOzrHsc-63" edge="1">
          <mxGeometry relative="1" as="geometry">
            <Array as="points">
              <mxPoint x="-1005" y="480" />
              <mxPoint x="-945" y="480" />
            </Array>
          </mxGeometry>
        </mxCell>
        <mxCell id="fHIm1r6-pVbR7uOzrHsc-65" value="wird generiert" style="edgeLabel;html=1;align=center;verticalAlign=middle;resizable=0;points=[];fontFamily=Helvetica;fontSize=11;fontColor=default;labelBackgroundColor=none;" parent="fHIm1r6-pVbR7uOzrHsc-64" vertex="1" connectable="0">
          <mxGeometry x="0.1621" y="1" relative="1" as="geometry">
            <mxPoint y="-9" as="offset" />
          </mxGeometry>
        </mxCell>
        <mxCell id="fHIm1r6-pVbR7uOzrHsc-61" value="&lt;div&gt;&lt;font&gt;ReviewGrpcController&lt;/font&gt;&lt;/div&gt;" style="rounded=0;whiteSpace=wrap;html=1;fontSize=14;" parent="1" vertex="1">
          <mxGeometry x="-1090" y="380" width="160" height="60" as="geometry" />
        </mxCell>
        <mxCell id="fHIm1r6-pVbR7uOzrHsc-63" value="&lt;div&gt;&lt;font&gt;ReviewServiceStub&lt;/font&gt;&lt;br&gt;&lt;/div&gt;" style="rounded=0;whiteSpace=wrap;html=1;fontSize=14;" parent="1" vertex="1">
          <mxGeometry x="-1020" y="510" width="160" height="60" as="geometry" />
        </mxCell>
        <mxCell id="fHIm1r6-pVbR7uOzrHsc-67" value="&lt;font style=&quot;font-size: 10px;&quot;&gt;ReviewCreatedEventDTO&lt;/font&gt;" style="rounded=0;whiteSpace=wrap;html=1;" parent="1" vertex="1">
          <mxGeometry x="-220" y="-95" width="130" height="20" as="geometry" />
        </mxCell>
        <mxCell id="fHIm1r6-pVbR7uOzrHsc-73" value="" style="endArrow=none;html=1;rounded=0;strokeColor=#82b366;align=center;verticalAlign=middle;fontFamily=Helvetica;fontSize=11;fontColor=default;labelBackgroundColor=default;edgeStyle=orthogonalEdgeStyle;fillColor=#d5e8d4;dashed=1;strokeWidth=2;" parent="1" edge="1">
          <mxGeometry width="50" height="50" relative="1" as="geometry">
            <mxPoint x="-590" y="820" as="sourcePoint" />
            <mxPoint x="-590.14" y="-430" as="targetPoint" />
            <Array as="points">
              <mxPoint x="-589.91" y="780" />
              <mxPoint x="-589.91" y="730" />
            </Array>
          </mxGeometry>
        </mxCell>
        <mxCell id="fHIm1r6-pVbR7uOzrHsc-35" value="&lt;div&gt;&lt;font&gt;Review&lt;/font&gt;&lt;/div&gt;" style="rounded=0;whiteSpace=wrap;html=1;fontSize=14;" parent="1" vertex="1">
          <mxGeometry x="-670" y="102" width="160" height="60" as="geometry" />
        </mxCell>
        <mxCell id="fHIm1r6-pVbR7uOzrHsc-36" value="&lt;div&gt;&lt;font color=&quot;#808080&quot;&gt;&amp;lt;&amp;lt; interface &amp;gt;&amp;gt;&lt;/font&gt;&lt;/div&gt;&lt;div&gt;&lt;font&gt;ReviewService&lt;br&gt;&lt;/font&gt;&lt;/div&gt;" style="rounded=0;whiteSpace=wrap;html=1;fontSize=14;" parent="1" vertex="1">
          <mxGeometry x="-670" y="200" width="160" height="60" as="geometry" />
        </mxCell>
        <mxCell id="fHIm1r6-pVbR7uOzrHsc-38" value="&lt;div&gt;&lt;font&gt;ReviewServiceImpl&lt;/font&gt;&lt;/div&gt;" style="rounded=0;whiteSpace=wrap;html=1;fontSize=14;" parent="1" vertex="1">
          <mxGeometry x="-810" y="400" width="160" height="60" as="geometry" />
        </mxCell>
        <mxCell id="fHIm1r6-pVbR7uOzrHsc-33" value="Application und Ports" style="text;html=1;align=center;verticalAlign=middle;whiteSpace=wrap;rounded=0;" parent="1" vertex="1">
          <mxGeometry x="-650" y="523.45" width="120" height="30" as="geometry" />
        </mxCell>
        <mxCell id="fHIm1r6-pVbR7uOzrHsc-32" value="Domain" style="text;html=1;align=center;verticalAlign=middle;whiteSpace=wrap;rounded=0;" parent="1" vertex="1">
          <mxGeometry x="-620" y="294" width="60" height="30" as="geometry" />
        </mxCell>
        <mxCell id="fHIm1r6-pVbR7uOzrHsc-34" value="Adapter" style="text;html=1;align=center;verticalAlign=middle;whiteSpace=wrap;rounded=0;" parent="1" vertex="1">
          <mxGeometry x="-633" y="750" width="86" height="30" as="geometry" />
        </mxCell>
      </root>
    </mxGraphModel>
  </diagram>
</mxfile>
